<svg version="1.0" xmlns="http://www.w3.org/2000/svg"
 width="494.000000pt" height="494.000000pt" viewBox="0 0 494.000000 494.000000"
 preserveAspectRatio="xMidYMid meet">

  <g transform="translate(0.000000,494.000000) scale(0.100000,-0.100000)"
  fill="#000000" stroke="none">
    <path d="M3127 4706 c-55 -20 -103 -61 -134 -114 l-28 -47 0 -565 0 -565 23
    -45 c33 -63 79 -109 137 -136 l50 -24 570 0 570 0 50 24 c54 25 100 71 122
    123 19 47 16 132 -6 176 -11 22 -217 233 -493 505 -658 650 -667 658 -713 671
    -52 14 -101 13 -148 -3z m708 -909 l140 -137 -285 2 -285 3 -3 280 -2 280 147
    -145 c82 -80 211 -207 288 -283z"/>
    <path d="M1385 4341 c-1142 -7 -1053 -1 -1122 -73 -67 -70 -63 58 -63 -1832 0
    -1148 4 -1723 10 -1748 16 -57 69 -120 125 -148 l50 -25 1195 0 c657 -1 1207
    1 1223 3 26 4 25 7 -55 86 -76 74 -108 120 -137 199 l-11 27 -1035 0 -1035 0
    -2 318 c-5 914 -5 1682 0 2250 l5 632 1059 0 1058 0 0 155 0 155 -67 0 c-38 0
    -90 2 -118 3 -27 2 -513 1 -1080 -2z"/>
    <path d="M780 3635 l0 -165 170 0 170 0 0 165 0 165 -170 0 -170 0 0 -165z"/>
    <path d="M1350 3635 l0 -165 165 0 165 0 0 165 0 165 -165 0 -165 0 0 -165z"/>
    <path d="M2270 3330 l0 -210 209 0 210 0 3 -187 c2 -104 2 -191 0 -195 -2 -5
    -99 -8 -215 -8 l-212 0 3 -200 3 -200 -223 2 -223 3 -3 213 -2 212 -220 0
    -220 0 0 -215 0 -215 -220 0 -220 0 0 -205 0 -205 220 0 220 0 0 -200 0 -200
    -220 0 -220 0 0 -210 0 -210 220 0 220 0 0 205 0 205 220 0 220 0 2 203 3 202
    218 3 217 2 0 200 0 200 220 0 220 0 0 195 0 195 215 0 215 0 0 124 0 125 -53
    24 c-48 22 -147 107 -147 127 0 5 -51 11 -112 12 l-113 3 -3 208 -2 207 -215
    0 -215 0 0 -210z m-450 -1205 l0 -205 -220 0 -220 0 0 205 0 205 220 0 220 0
    0 -205z"/>
    <path d="M3520 2646 l0 -316 -130 0 c-115 0 -131 -2 -137 -17 -7 -20 -59 -88
    -115 -150 l-38 -43 0 -100 0 -100 -135 0 c-120 0 -135 -2 -144 -18 -5 -10 -42
    -56 -80 -102 l-71 -84 0 -98 0 -98 -154 0 c-128 0 -155 -3 -158 -15 -2 -8 -37
    -55 -78 -105 l-75 -90 -142 0 -141 0 -51 -58 c-46 -51 -51 -62 -51 -104 l0
    -48 395 0 395 0 0 23 c-1 16 115 137 442 460 244 241 463 451 488 468 62 41
    130 59 227 59 l83 0 0 364 0 364 -47 40 c-75 61 -109 75 -200 80 l-83 5 0
    -317z"/>
    <path d="M3711 1755 c-39 -12 -97 -66 -404 -372 -197 -197 -365 -370 -373
    -385 -16 -32 -19 -124 -3 -165 12 -32 720 -747 761 -769 38 -20 136 -18 175 4
    52 29 752 727 768 766 21 49 19 112 -5 162 -25 50 -703 724 -753 747 -49 23
    -116 28 -166 12z m304 -594 c129 -129 235 -240 235 -248 0 -7 -107 -122 -239
    -255 -176 -178 -242 -240 -255 -235 -14 6 -16 30 -16 202 l0 195 -194 0 -194
    0 -26 31 c-36 43 -35 91 3 130 l29 29 191 0 191 0 0 188 c0 104 3 192 7 196 4
    4 13 5 20 4 7 -2 118 -108 248 -237z"/>
  </g>
</svg>
